<svg xmlns="http://www.w3.org/2000/svg" viewBox="0 0 100 100" width="180" height="180" role="img" aria-label="AareZyt — Worblaufen → Felsenaubrücke">
  <defs>
    <linearGradient id="bg" x1="0" y1="0" x2="0" y2="1">
      <stop offset="0%" stop-color="#f1e6cf"/>
      <stop offset="100%" stop-color="#cda864"/>
    </linearGradient>
  </defs>
  <rect width="100" height="100" rx="22" fill="url(#bg)"/>
  <path d="M 88 74.68 L 83.63 74.04 L 80.95 73.76 L 78.83 73.12 L 76.01 72.21 L 74.11 70.45 L 72.7 67.48 L 72 62.9 L 70.37 56.06 L 68.05 48.87 L 66.22 43.09 L 65.58 36.82 L 65.58 32.59 L 66.5 26.17 L 66.07 24.55 L 65.09 21.94 L 65.09 17.85 L 64.1 16.86 L 63.18 16.3 L 62.06 16.02 L 60.22 15.81 L 58.53 15.81 L 54.51 16.72 L 48.87 18.91 L 47.67 19.54 L 46.62 20.46 L 44.64 23.07 L 42.24 28.29 L 44.64 34.35 L 44.64 34.98 L 44.5 35.62 L 43.58 37.8 L 41.75 39.92 L 40.2 42.03 L 38.01 44.5 L 34.56 47.39 L 27.79 51.34 L 24.9 53.24 L 21.66 55.01 L 18.2 58.11 L 16.51 62.97 L 17.15 65.3 L 17.57 65.93 L 18.27 66.36 L 25.47 68.89 L 27.09 69.46 L 28.22 69.67 L 29.34 69.6 L 30.89 69.18 L 34.21 67.48 L 37.1 65.86 L 40.69 64.38 L 41.4 64.31 L 42.81 64.24 L 43.37 64.31 L 44.64 64.95 L 47.32 66.64 L 47.74 67.13 L 47.88 68.12 L 49.08 72.42 L 50.28 74.82 L 48.94 78.55 L 47.67 80.39 L 45.49 81.94 L 41.89 83.49 L 39.5 83.91 L 35.83 84.19 L 35.05 84.05 L 34.07 83.35 L 32.23 79.12 L 30.75 77.64 L 25.75 74.53 L 24.83 74.32 L 19.9 73.9 L 18.56 74.04 L 17.08 74.39 L 16.02 74.82 L 12.49 78.41 L 12 78.98"
        fill="none"
        stroke="#0f5f57"
        stroke-opacity=".30"
        stroke-width="11"
        stroke-linecap="round"
        stroke-linejoin="round"/>
  <path d="M 88 74.68 L 83.63 74.04 L 80.95 73.76 L 78.83 73.12 L 76.01 72.21 L 74.11 70.45 L 72.7 67.48 L 72 62.9 L 70.37 56.06 L 68.05 48.87 L 66.22 43.09 L 65.58 36.82 L 65.58 32.59 L 66.5 26.17 L 66.07 24.55 L 65.09 21.94 L 65.09 17.85 L 64.1 16.86 L 63.18 16.3 L 62.06 16.02 L 60.22 15.81 L 58.53 15.81 L 54.51 16.72 L 48.87 18.91 L 47.67 19.54 L 46.62 20.46 L 44.64 23.07 L 42.24 28.29 L 44.64 34.35 L 44.64 34.98 L 44.5 35.62 L 43.58 37.8 L 41.75 39.92 L 40.2 42.03 L 38.01 44.5 L 34.56 47.39 L 27.79 51.34 L 24.9 53.24 L 21.66 55.01 L 18.2 58.11 L 16.51 62.97 L 17.15 65.3 L 17.57 65.93 L 18.27 66.36 L 25.47 68.89 L 27.09 69.46 L 28.22 69.67 L 29.34 69.6 L 30.89 69.18 L 34.21 67.48 L 37.1 65.86 L 40.69 64.38 L 41.4 64.31 L 42.81 64.24 L 43.37 64.31 L 44.64 64.95 L 47.32 66.64 L 47.74 67.13 L 47.88 68.12 L 49.08 72.42 L 50.28 74.82 L 48.94 78.55 L 47.67 80.39 L 45.49 81.94 L 41.89 83.49 L 39.5 83.91 L 35.83 84.19 L 35.05 84.05 L 34.07 83.35 L 32.23 79.12 L 30.75 77.64 L 25.75 74.53 L 24.83 74.32 L 19.9 73.9 L 18.56 74.04 L 17.08 74.39 L 16.02 74.82 L 12.49 78.41 L 12 78.98"
        fill="none"
        stroke="#182427"
        stroke-width="5.5"
        stroke-linecap="round"
        stroke-linejoin="round"/>
</svg>
